<svg version="1.1" id="Layer_1" xmlns="http://www.w3.org/2000/svg" xmlns:xlink="http://www.w3.org/1999/xlink" x="0px" y="0px"
	 width="100%" viewBox="0 0 1024 1024" enable-background="new 0 0 1024 1024" xml:space="preserve">
<path fill="#FFFFFF" opacity="1.000000" stroke="none" 
	d="
M380.689789,678.862549 
	C395.231934,631.853455 414.696106,587.335022 438.304230,544.709473 
	C455.442139,513.766235 475.919983,484.976471 498.662781,457.841644 
	C499.480103,456.866516 500.681152,456.044800 500.414154,454.174835 
	C493.544220,455.299835 489.193695,460.299561 484.597656,464.551361 
	C444.686249,501.473877 415.405609,545.722351 394.431152,595.709900 
	C386.374847,614.910217 378.580505,634.185486 373.270996,654.357300 
	C371.708069,660.295044 370.600647,666.352112 369.255524,672.348083 
	C368.763824,674.539917 368.696075,676.933228 366.225128,679.287476 
	C363.065002,673.115356 362.445221,666.787109 360.835297,660.838196 
	C351.940979,627.972656 351.502960,594.338745 353.002228,560.707520 
	C354.978638,516.372864 365.940216,474.283051 387.680298,435.356201 
	C412.919006,390.164856 447.502960,354.373474 494.096008,330.881561 
	C499.603729,328.104584 505.284302,325.690308 511.180237,323.880554 
	C516.608582,322.214355 517.231445,322.829407 517.232605,328.450195 
	C517.236938,348.778992 517.251709,369.107880 517.329712,389.436493 
	C517.360291,397.424103 522.308777,402.662903 530.302246,402.616516 
	C542.946350,402.543091 555.581909,401.814117 568.229065,402.822693 
	C572.656006,403.175751 575.132446,400.320587 575.617554,396.262512 
	C576.523865,388.680267 577.270264,381.058411 577.594543,373.432251 
	C578.008911,363.688141 579.789795,361.679016 589.326355,361.681580 
	C598.491333,361.684052 607.656494,361.649078 616.821289,361.683441 
	C623.702393,361.709229 626.791138,365.069519 627.412354,372.063263 
	C628.103516,379.844971 627.950195,387.684235 629.286621,395.426147 
	C630.368713,401.694519 631.399841,402.832458 637.550964,402.850800 
	C642.216614,402.864746 646.882568,402.794922 651.548035,402.819092 
	C658.529114,402.855255 659.185242,403.448364 658.366089,410.121368 
	C654.635559,440.511078 642.532349,466.681122 618.974121,486.856750 
	C602.960449,500.571198 584.401917,509.860962 564.838501,517.384399 
	C554.306946,521.434448 543.476868,524.559143 532.804138,528.437500 
	C545.821777,531.236084 558.253357,527.615112 570.702881,524.950378 
	C583.150574,522.285950 595.255310,518.351257 606.837769,513.135681 
	C608.128784,515.432800 606.997925,516.654175 606.245728,517.847534 
	C589.110535,545.031616 569.903442,570.506775 544.800476,590.968201 
	C525.852051,606.413025 505.027252,618.970093 482.923340,629.289001 
	C462.617279,638.768799 444.549591,651.433044 428.357452,666.712158 
	C411.074036,683.021057 400.411011,703.277283 394.274292,726.180359 
	C390.923126,738.687500 389.301758,751.664429 384.162933,763.695740 
	C379.999115,773.444275 367.121796,786.284790 355.727081,791.061584 
	C362.553833,752.899048 369.990906,715.742126 380.689789,678.862549 
z"/>
<path fill="#FFFFFF" opacity="1.000000" stroke="none" 
	d="
M625.678711,324.056824 
	C625.680054,321.903381 625.649597,320.239197 625.689087,318.576691 
	C625.846558,311.946960 628.145203,309.689087 634.836060,309.666016 
	C643.485718,309.636169 652.135620,309.625732 660.785156,309.660065 
	C667.488098,309.686676 669.289062,311.507111 669.323120,318.324982 
	C669.366394,326.974487 669.364258,335.624481 669.320618,344.273987 
	C669.288940,350.543701 666.785950,353.161621 660.662781,353.216400 
	C651.348450,353.299713 642.032837,353.311737 632.718201,353.263519 
	C627.279724,353.235352 625.731567,351.617249 625.686340,346.004700 
	C625.628784,338.852539 625.676636,331.699524 625.678711,324.056824 
z"/>
<path fill="#FFFFFF" opacity="1.000000" stroke="none" 
	d="
M612.328125,287.801025 
	C612.188477,295.711945 610.621643,297.271545 603.156128,297.294434 
	C595.342957,297.318390 587.529297,297.353027 579.716614,297.288361 
	C574.453369,297.244781 572.004761,295.038269 571.910828,289.759369 
	C571.748108,280.619751 571.770935,271.472107 571.958496,262.332794 
	C572.066772,257.055237 574.492004,254.797760 579.758545,254.736496 
	C588.069275,254.639801 596.383057,254.632553 604.693542,254.741287 
	C610.025940,254.811035 612.244995,257.059082 612.304810,262.392761 
	C612.398010,270.703644 612.328552,279.016357 612.328125,287.801025 
z"/>
<path fill="#FFFFFF" opacity="1.000000" stroke="none" 
	d="
M570.751221,352.279083 
	C560.627563,354.138031 550.811584,353.211761 541.042603,353.012146 
	C537.393982,352.937592 535.851013,349.517944 535.780151,346.133209 
	C535.595398,337.314606 535.639893,328.490356 535.662842,319.668549 
	C535.675171,314.938660 539.066650,313.138824 542.881470,312.960358 
	C551.019531,312.579651 559.191162,312.616852 567.338135,312.854889 
	C571.298035,312.970581 573.896973,315.594299 574.173645,319.542450 
	C574.789307,328.330841 573.949280,337.162323 574.857727,345.970764 
	C575.121033,348.524261 573.377380,350.659698 570.751221,352.279083 
z"/>
<path fill="#FFFFFF" opacity="1.000000" stroke="none" 
	d="
M636.795166,231.943970 
	C636.789368,225.627533 636.769897,219.802277 636.785461,213.977142 
	C636.796082,210.029892 638.450012,207.676437 642.749268,207.714340 
	C650.238281,207.780365 657.728271,207.776169 665.217651,207.749710 
	C669.022278,207.736267 671.013245,209.491104 671.478149,213.327774 
	C672.503601,221.789963 672.182922,230.272232 671.875610,238.736679 
	C671.719910,243.023895 669.410583,245.116409 664.616028,244.764313 
	C657.994751,244.278076 651.319702,244.458145 644.667908,244.471695 
	C637.749634,244.485779 636.873840,243.713745 636.797119,236.928940 
	C636.780212,235.431213 636.795776,233.933136 636.795166,231.943970 
z"/>
<path fill="#FFFFFF" opacity="1.000000" stroke="none" 
	d="
M694.341553,265.909363 
	C700.638611,265.881073 706.472412,265.789856 712.304382,265.856049 
	C718.083374,265.921600 720.213867,268.000488 720.290894,273.638092 
	C720.375122,279.803406 720.367859,285.971222 720.302307,292.136902 
	C720.247375,297.308472 718.281677,299.836456 713.347534,300.040771 
	C706.364014,300.330017 699.353943,300.202148 692.362793,299.994995 
	C688.205627,299.871826 685.945801,297.285492 685.858704,293.207611 
	C685.712952,286.378357 685.696106,279.540588 685.863159,272.712250 
	C685.986877,267.653931 689.199158,265.818054 694.341553,265.909363 
z"/>
<path fill="#FFFFFF" opacity="1.000000" stroke="none" 
	d="
M689.628601,195.685654 
	C689.634094,188.910019 689.690796,182.598694 689.639709,176.288208 
	C689.603149,171.770950 691.578735,169.552261 696.256348,169.639740 
	C703.229370,169.770172 710.211853,169.841690 717.180115,169.619141 
	C721.987366,169.465607 723.926941,172.123520 724.094177,176.226685 
	C724.357544,182.692307 724.286255,189.179504 724.121582,195.651581 
	C724.023254,199.516632 721.742859,201.978622 717.880188,202.093170 
	C710.413879,202.314606 702.934448,202.284607 695.465149,202.130432 
	C691.805847,202.054886 689.594299,200.077606 689.628601,195.685654 
z"/>
<path fill="#FFFFFF" opacity="1.000000" stroke="none" 
	d="
M705.555237,392.797852 
	C696.724243,395.596924 688.068054,393.935028 679.491455,393.934296 
	C677.140930,393.934082 675.755554,391.803650 675.733154,389.356537 
	C675.664734,381.868591 675.618164,374.378601 675.724487,366.891663 
	C675.772827,363.493896 677.830322,361.738312 681.179199,361.710907 
	C688.001953,361.655060 694.825623,361.688019 701.648804,361.708130 
	C704.450378,361.716400 706.879456,362.962067 707.257507,365.703979 
	C708.393494,373.942993 708.584839,382.244080 707.262817,390.503448 
	C707.145386,391.237396 706.367981,391.865692 705.555237,392.797852 
z"/>
</svg>